<svg width="13" height="13" viewBox="0 0 13 13" fill="none" xmlns="http://www.w3.org/2000/svg">
<path d="M5.81966 6.01326L9.74133 1.90737C9.96667 1.70988 10.3957 1.64299 10.647 1.90775C10.894 2.16857 10.894 2.59222 10.647 2.85342L7.176 6.48787L10.647 10.1223C10.894 10.3835 10.8956 10.8072 10.647 11.0684C10.3957 11.3328 9.99266 11.3328 9.74133 11.0684L5.81966 6.96249C5.694 6.8287 5.63333 6.65988 5.63333 6.48787C5.63334 6.31587 5.694 6.14386 5.81966 6.01326Z" fill="#343434"/>
<path d="M2.35299 6.01326L6.27466 1.90737C6.49999 1.70988 6.92899 1.64299 7.18032 1.90775C7.42732 2.16857 7.42732 2.59222 7.18032 2.85342L3.70932 6.48787L7.18032 10.1223C7.42732 10.3835 7.42889 10.8072 7.18032 11.0684C6.92899 11.3328 6.52599 11.3328 6.27466 11.0684L2.35299 6.96249C2.22732 6.8287 2.16666 6.65988 2.16666 6.48787C2.16666 6.31587 2.22732 6.14386 2.35299 6.01326Z" fill="#343434"/>
</svg>
