<svg width="13" height="13" viewBox="0 0 13 13" fill="none" xmlns="http://www.w3.org/2000/svg">
<path d="M5.63333 9.53333C5.63333 9.05469 6.02135 8.66667 6.5 8.66667V8.66667C6.97865 8.66667 7.36667 9.05469 7.36667 9.53333V9.53333C7.36667 10.012 6.97865 10.4 6.5 10.4V10.4C6.02135 10.4 5.63333 10.012 5.63333 9.53333V9.53333ZM5.85 3.03333C5.85 2.67435 6.14101 2.38333 6.5 2.38333V2.38333C6.85899 2.38333 7.15 2.67435 7.15 3.03333V7.15C7.15 7.50899 6.85899 7.8 6.5 7.8V7.8C6.14101 7.8 5.85 7.50899 5.85 7.15V3.03333ZM6.4935 0C2.9055 0 0 2.912 0 6.5C0 10.088 2.9055 13 6.4935 13C10.088 13 13 10.088 13 6.5C13 2.912 10.088 0 6.4935 0ZM6.5 11.7C3.627 11.7 1.3 9.373 1.3 6.5C1.3 3.627 3.627 1.3 6.5 1.3C9.373 1.3 11.7 3.627 11.7 6.5C11.7 9.373 9.373 11.7 6.5 11.7Z" fill="#343434"/>
</svg>
