<svg width="13" height="13" viewBox="0 0 13 13" fill="none" xmlns="http://www.w3.org/2000/svg">
<path d="M6.5 10.2451C6.85057 10.2451 7.13477 9.96092 7.13477 9.61035C7.13477 9.25978 6.85057 8.97559 6.5 8.97559C6.14943 8.97559 5.86523 9.25978 5.86523 9.61035C5.86523 9.96092 6.14943 10.2451 6.5 10.2451Z" fill="#343434"/>
<path d="M6.5 0C2.90763 0 0 2.90715 0 6.5C0 10.0924 2.90715 13 6.5 13C10.0924 13 13 10.0928 13 6.5C13 2.90763 10.0928 0 6.5 0ZM6.5 11.9844C3.46894 11.9844 1.01563 9.53146 1.01563 6.5C1.01563 3.46894 3.46854 1.01563 6.5 1.01563C9.53106 1.01563 11.9844 3.46854 11.9844 6.5C11.9844 9.53106 9.53146 11.9844 6.5 11.9844Z" fill="#343434"/>
<path d="M6.5 3.2627C5.37997 3.2627 4.46875 4.17391 4.46875 5.29395C4.46875 5.57441 4.6961 5.80176 4.97656 5.80176C5.25703 5.80176 5.48438 5.57441 5.48438 5.29395C5.48438 4.73393 5.93998 4.27832 6.5 4.27832C7.06002 4.27832 7.51563 4.73393 7.51563 5.29395C7.51563 5.85396 7.06002 6.30957 6.5 6.30957C6.21954 6.30957 5.99219 6.53692 5.99219 6.81738V8.08691C5.99219 8.36738 6.21954 8.59473 6.5 8.59473C6.78046 8.59473 7.00781 8.36738 7.00781 8.08691V7.26093C7.88293 7.03488 8.53125 6.23871 8.53125 5.29395C8.53125 4.17391 7.62003 3.2627 6.5 3.2627Z" fill="#343434"/>
</svg>
