<svg width="13" height="13" viewBox="0 0 13 13" fill="none" xmlns="http://www.w3.org/2000/svg">
<path d="M12.0359 11.5588L9.2973 8.82079C10.0319 7.97641 10.4767 6.87472 10.4767 5.67062C10.4767 3.02008 8.32031 0.866669 5.67168 0.866669C3.02055 0.866669 0.866669 3.02257 0.866669 5.67062C0.866669 8.31866 3.02305 10.4746 5.67168 10.4746C6.87606 10.4746 7.97799 10.0299 8.82255 9.29543L11.5611 12.0334C11.6261 12.0984 11.7136 12.1333 11.7985 12.1333C11.8835 12.1333 11.9709 12.1009 12.0359 12.0334C12.1658 11.9035 12.1658 11.6887 12.0359 11.5588ZM1.53882 5.67062C1.53882 3.3923 3.39286 1.54117 5.66918 1.54117C7.948 1.54117 9.79954 3.3948 9.79954 5.67062C9.79954 7.94643 7.948 9.80256 5.66918 9.80256C3.39286 9.80256 1.53882 7.94893 1.53882 5.67062Z" fill="#343434" stroke="#343434"/>
</svg>
