<svg width="13" height="13" viewBox="0 0 13 13" fill="none" xmlns="http://www.w3.org/2000/svg">
<path d="M10.6708 7.36667H2.32922C2.16774 7.36667 2.02815 7.42384 1.9102 7.53808C1.79226 7.65246 1.73334 7.78783 1.73334 7.94432C1.73334 8.10081 1.79226 8.23627 1.9102 8.35058L6.08099 12.395C6.19906 12.5094 6.33866 12.5667 6.5 12.5667C6.66135 12.5667 6.80107 12.5094 6.91892 12.395L11.0897 8.35055C11.2075 8.23627 11.2667 8.10081 11.2667 7.94428C11.2667 7.78783 11.2076 7.65246 11.0897 7.53805C10.9719 7.42371 10.8321 7.36667 10.6708 7.36667Z" fill="#343434"/>
<path d="M2.32922 5.63333H10.6708C10.8321 5.63333 10.9718 5.5762 11.0897 5.46183C11.2075 5.34749 11.2667 5.21209 11.2667 5.0556C11.2667 4.89911 11.2076 4.76378 11.0897 4.64928L6.91892 0.604842C6.80107 0.49063 6.66148 0.433334 6.5 0.433334C6.33853 0.433334 6.19893 0.49063 6.08099 0.604842L1.9102 4.64928C1.79226 4.76365 1.73334 4.89911 1.73334 5.0556C1.73334 5.21206 1.79226 5.34749 1.9102 5.46183C2.02828 5.5762 2.16787 5.63333 2.32922 5.63333Z" fill="#343434"/>
</svg>
