<svg width="13" height="13" viewBox="0 0 13 13" fill="none" xmlns="http://www.w3.org/2000/svg">
<path d="M12.9174 6.24714C12.8012 6.08827 10.0341 2.35714 6.49994 2.35714C2.96578 2.35714 0.198504 6.08827 0.0824943 6.24699C-0.0274981 6.39771 -0.0274981 6.60213 0.0824943 6.75285C0.198504 6.91172 2.96578 10.6429 6.49994 10.6429C10.0341 10.6429 12.8012 6.91169 12.9174 6.75297C13.0275 6.60228 13.0275 6.39771 12.9174 6.24714ZM6.49994 9.78571C3.89666 9.78571 1.64194 7.30928 0.974494 6.4997C1.64108 5.68941 3.89107 3.21427 6.49994 3.21427C9.10309 3.21427 11.3577 5.69027 12.0254 6.50029C11.3588 7.31055 9.1088 9.78571 6.49994 9.78571Z" fill="#343434"/>
<path d="M6.49994 3.92856C5.08207 3.92856 3.9285 5.08214 3.9285 6.5C3.9285 7.91787 5.08207 9.07144 6.49994 9.07144C7.9178 9.07144 9.07138 7.91787 9.07138 6.5C9.07138 5.08214 7.9178 3.92856 6.49994 3.92856ZM6.49994 8.21428C5.55464 8.21428 4.78566 7.44527 4.78566 6.5C4.78566 5.55474 5.55467 4.78573 6.49994 4.78573C7.44521 4.78573 8.21421 5.55474 8.21421 6.5C8.21421 7.44527 7.44523 8.21428 6.49994 8.21428Z" fill="#343434"/>
</svg>
